# xmcd
#
# Track frame offsets:
#	150
#	3466
#	22517
#	47335
#	97819
#	109039
#	135523
#	173695
#	212044
#	243700
#	279627
#	316379
#
# Disc length: 4471 seconds
#
# Revision: 1
# Processed by: cddbd v1.5.2PL0 Copyright (c) Steve Scherf et al.
# Submitted via: audiograbber 1.83.01
#
DISCID=9011750c
DTITLE=Grateful Dead - 80-12-12 Swing Auditorium, San Bernardino CA
DYEAR=1900
DGENRE=
TTITLE0=Tuning
TTITLE1=Alabama Getaway
TTITLE2=Greatest Story Ever Told
TTITLE3=Friend Of The Devil
TTITLE4=Mama Tried
TTITLE5=Mexicali Blues
TTITLE6=Althea
TTITLE7=Little Red Rooster
TTITLE8=Peggy-O
TTITLE9=Looks Like Rain
TTITLE10=Tennessee Jed
TTITLE11=Promised Land
EXTD=
EXTT0=
EXTT1=
EXTT2=
EXTT3=
EXTT4=
EXTT5=
EXTT6=
EXTT7=
EXTT8=
EXTT9=
EXTT10=
EXTT11=
PLAYORDER=
